<svg xmlns="http://www.w3.org/2000/svg" viewBox="0 0 860.77 282.78"><defs><style>.a{fill:#26a0b3;}</style></defs><path class="a" d="M126.13,132.51c.41-5.63.52-11.31,1.22-16.91s1.79-11.08,3-16.55c.64-2.84,1.38-5.58.53-8.44a6.43,6.43,0,0,0-1.17-2.39c-4.39-5.08-9.34-9.46-15.78-11.81-3.21-1.17-6.52-.76-9.82-.56-3.12.2-6.23.43-9.36.55a7.08,7.08,0,0,1-2-.6,6.6,6.6,0,0,1,5.45-3.36,95.24,95.24,0,0,1,10.4-.69c5.15,0,8.62-2.62,11.53-6.57a27.81,27.81,0,0,1,4.64-4.49,7.51,7.51,0,0,1,2.54-.86c.49,3.36-1,5.69-2.73,7.91-.92,1.16-1.76,2.37-2.72,3.5a1.81,1.81,0,0,0,.27,2.83c2.73,2.37,5.63,4.57,8.28,7,2.43,2.26,5.09,4.49,6.82,7.26s.91,6.36-.17,9.57c-.9,2.65-1.64,5.35-2.45,8l.47.44a25.31,25.31,0,0,0,2.89-.85c8.46-3.54,14.85-9.7,19.92-17,6.14-8.85,9.79-18.68,8.38-29.78a18.4,18.4,0,0,0-4.38-9.19q-2.34-2.93-4.56-6a10.18,10.18,0,0,1-.87-2c3.4-.72,6,.55,8.26,2.46a25.94,25.94,0,0,1,8.39,14.08,40.27,40.27,0,0,1,.47,15.46c-.7,5-2.83,9.62-5.39,14a52.82,52.82,0,0,1-14.53,16.14,42.55,42.55,0,0,1-18.12,8,2.05,2.05,0,0,0-2,2c-1.44,8.43-.72,17-1.55,25.42l-6-4.9"/><path class="a" d="M44.37,149.73c-1.45-4.83-1-9.79-1.87-14.61-.83-4.43-1.93-8.82-3-13.21-.65-2.69-1.42-5.35-2.22-8a2,2,0,0,0-1.1-1.16,62.06,62.06,0,0,1-15.57-6.63c-8-5.07-14.6-11.43-17.88-20.58C.18,78.42-.29,71,.14,63.51a43.35,43.35,0,0,1,6.12-20.4,34.63,34.63,0,0,1,14.1-13c6.5-3.31,13.32-4.31,20.46-4.06,1.94.06,3.89.06,5.83.07,1,0,1.91.36,1.69,1.4a2.76,2.76,0,0,1-1.61,1.81,22.19,22.19,0,0,1-5.38.71c-8.9,0-15.78,4-21.64,10.34a36.23,36.23,0,0,0-8,14.25,47.24,47.24,0,0,0-1.36,21,39.5,39.5,0,0,0,7.69,18.75,32.51,32.51,0,0,0,15.65,11.24,5.61,5.61,0,0,0,1,.07,14.72,14.72,0,0,0-1.17-7.55,21,21,0,0,1-1.67-9.79,4.94,4.94,0,0,1,.65-2,9.61,9.61,0,0,1,1.64-1.53c.51.58,1.26,1.08,1.51,1.75,1,2.64,1.82,5.33,2.63,8,1,3.23,1.85,6.49,2.75,9.75.94,3.42,1.85,6.85,2.76,10.27.76,2.83,1.58,5.63,2.22,8.48.72,3.2,1.29,6.44,1.9,9.66.34,1.78.63,3.69,1,5.62"/><path class="a" d="M50.45,31.43a18.9,18.9,0,0,1,2.23-8.74c4.39-9,12-14.41,21-18.17,11.28-4.71,23.07-5.2,35-3.9,4.23.46,8.38,1.75,12.52,2.79C130.37,5.73,137.8,11,144,17.93c6.88,7.7,9.91,16.57,7.81,26.92-.44,2.21-.88,4.33-3.4,5.67a9.38,9.38,0,0,1-.81-2.21,52.51,52.51,0,0,1-.14-5.47c.12-4.53-1.53-8.52-3.69-12.33a36.46,36.46,0,0,0-12.67-12.83,57.11,57.11,0,0,0-15.34-6.47A69.68,69.68,0,0,0,92.65,9c-11,.74-21.36,3.82-30.2,10.73-3,2.32-5.82,4.87-7.31,8.62C54.43,30.1,53.22,31.92,50.45,31.43Z"/><path class="a" d="M91.59,132.49q44.7,0,44.7,43l-17.15,7.87c.2-4,.3-7.16.3-9.38q0-30.48-24.42-30.48-25.83,0-25.83,64.69,0,55.6,28.86,55.6,11.91,0,19.83-9.49t7.92-23.71a100.88,100.88,0,0,0-1.31-13.42l17,4.44c.27,3.5.41,6.52.41,9.08q0,20.08-14.54,32.09t-38.95,12q-61.24,0-61.25-68.93,0-32.68,17.86-53t46.52-20.34m0-8c-21.42,0-39.09,7.76-52.53,23.06-13.17,15-19.85,34.61-19.85,58.3,0,63.58,37.66,76.93,69.25,76.93,18.12,0,32.94-4.66,44.05-13.84C144.08,259.38,150,246.5,150,230.68c0-2.73-.15-6-.43-9.69a8,8,0,0,0-6-7.13l-17.06-4.44a7.65,7.65,0,0,0-2-.26,8,8,0,0,0-7.92,9.16,89.82,89.82,0,0,1,1.23,12.26c0,7.62-2,13.7-6.06,18.58-3.77,4.52-8.12,6.62-13.69,6.62-6.62,0-11.11-3-14.55-9.59-4.19-8.07-6.31-20.86-6.31-38,0-21.17,2.31-56.69,17.83-56.69,8.53,0,16.42,2.72,16.42,22.48,0,2.07-.1,5.09-.29,9a8,8,0,0,0,11.33,7.67l17.15-7.87a8,8,0,0,0,4.66-7.27c0-16.52-4.58-29.31-13.63-38s-22.1-13-39.07-13Z"/><path class="a" d="M201.18,168.11q50.46,0,50.46,53.29t-50.46,53.28q-50.55,0-50.56-53.28t50.56-53.29m-.1,97.59q12.31,0,12.31-44.3t-12.31-44.31q-12.21,0-12.21,44.31t12.21,44.3m.1-105.59c-19.05,0-33.76,5.32-43.72,15.82s-14.84,25.67-14.84,45.47,5,35.09,14.84,45.46,24.67,15.82,43.72,15.82,33.71-5.33,43.65-15.82,14.81-25.67,14.81-45.46-5-35.09-14.81-45.47-24.63-15.82-43.65-15.82Zm-.07,96.48c-1.5-2.95-4.24-11.56-4.24-35.19s2.74-32.25,4.24-35.2c1.51,2.93,4.28,11.51,4.28,35.2s-2.77,32.27-4.28,35.19Z"/><path class="a" d="M313,168.11q50.46,0,50.46,53.29T313,274.68q-50.55,0-50.56-53.28T313,168.11m-.1,97.59q12.32,0,12.31-44.3t-12.31-44.31q-12.21,0-12.21,44.31t12.21,44.3m.1-105.59c-19.05,0-33.76,5.32-43.72,15.82s-14.84,25.67-14.84,45.47,5,35.09,14.84,45.46,24.67,15.82,43.72,15.82,33.71-5.33,43.65-15.82,14.81-25.67,14.81-45.46-5-35.09-14.81-45.47S332,160.11,313,160.11Zm-.07,96.48c-1.5-2.95-4.24-11.56-4.24-35.19s2.74-32.25,4.24-35.2c1.52,2.93,4.28,11.51,4.28,35.2s-2.76,32.27-4.28,35.19Z"/><path class="a" d="M415.52,132.49v86.18l39.25-47.93h14.74l-21,26.34,30.27,75.38H439.94l-17.66-44.81-6.76,8.28v36.53H378.69V134.71a347.28,347.28,0,0,0,36.83-2.22m0-8a8.27,8.27,0,0,0-.86.05,341.24,341.24,0,0,1-36,2.17,8,8,0,0,0-8,8V272.46a8,8,0,0,0,8,8h36.83a8,8,0,0,0,8-8V252.61l9,22.78a8,8,0,0,0,7.44,5.07h38.85a8,8,0,0,0,7.42-11l-28.53-71.06,18.08-22.7a8,8,0,0,0-6.25-13H454.77a8,8,0,0,0-6.19,2.93l-25.06,30.61V132.49a8,8,0,0,0-8-8Z"/><path class="a" d="M533.08,167.81q42,0,42,22.61v61.75q0,9.5,6.16,9.49c1.27,0,3.16-.71,5.65-2.12l3.53,9.28a72.57,72.57,0,0,1-26.34,5.25q-19,0-23.41-11.81-9.18,12.32-26.44,12.32-32.19,0-32.19-29.87,0-22.71,29.47-31.89,27-8.48,27-20.39,0-15.63-15.54-15.64-18,0-18,15.14,0,4.74,2.82,12.51l-18.26-3.53a60.59,60.59,0,0,1-.71-8.88q0-24.22,44.2-24.22m-6.36,92.64q11.5,0,11.51-20V211.3a31.28,31.28,0,0,1-8,6.56q-11.41,6.66-11.41,22.41,0,20.17,7.87,20.18M589.58,252a8.18,8.18,0,0,0-2.71-.47,8,8,0,0,0-3.81,1V190.42c0-10.52-5.08-18.82-14.7-24-8.26-4.45-19.8-6.61-35.28-6.61h0c-16.25,0-28.35,2.3-37,7C486.14,172.3,480.88,181,480.88,192a68.17,68.17,0,0,0,.8,10.06,8,8,0,0,0,6.39,6.67l8.31,1.61C478.24,219.94,474,233.85,474,244.71c0,24.42,14.27,37.87,40.19,37.87,10.1,0,18.63-2.68,25.48-8,4.81,4.24,12.4,7.46,24.37,7.46a80.82,80.82,0,0,0,29.23-5.79M515.7,202.89a8.29,8.29,0,0,0-.33-1.18c-2-5.61-2.34-8.54-2.34-9.78,0-3.35,0-7.14,10-7.14,5.92,0,7.54,1.64,7.54,7.64,0,1.92-3.3,6-14.83,10.46ZM528.08,252c-.53-1.62-1.23-5-1.23-11.71,0-5.93,1.5-9.62,3.38-12v12.23c0,6.83-1.14,9.82-1.81,11a3.61,3.61,0,0,1-.34.52Z"/><path class="a" d="M633.69,132.59v48.95Q644,168.12,656.6,168.11q36.12,0,36.12,50.06,0,56.51-43,56.51-20.29,0-34.62-19.08L606,272.46h-9.18V134.71q9,0,36.83-2.12m11.2,127.25q10.4,0,10.4-21.69l.6-24.93-.7-14q-1.62-16.24-10-16.24Q633,183,633,218.27q0,41.56,11.91,41.57m-11.2-135.25-.61,0c-18.27,1.39-30.46,2.09-36.22,2.09a8,8,0,0,0-8,8V272.46a8,8,0,0,0,8,8H606a8,8,0,0,0,7-4.21l3.69-6.84c9.5,8.81,20.54,13.27,33,13.27,16.89,0,29.88-5.82,38.6-17.29,8.33-10.95,12.38-26.4,12.38-47.22,0-18.58-3.45-32.39-10.54-42.22-7.58-10.51-18.88-15.84-33.58-15.84a31.09,31.09,0,0,0-14.91,3.79V132.59a8,8,0,0,0-8-8Zm11.57,126.76c-1.31-2.17-4.28-9.68-4.28-33.08,0-19.8,3-25.57,4.12-27,.55.92,1.56,3.25,2.11,8.54l.68,13.53-.6,24.62v.2c0,8.52-1.34,12-2,13.2Z"/><path class="a" d="M744.9,132.69V272.46H708.06V134.71q15.24,0,36.84-2m0-8a6.28,6.28,0,0,0-.75,0c-14.07,1.31-26.21,2-36.09,2a8,8,0,0,0-8,8V272.46a8,8,0,0,0,8,8H744.9a8,8,0,0,0,8-8V132.69a8,8,0,0,0-8-8Z"/><path class="a" d="M808.47,167.91q44.1,0,44.1,56.92H798.89q0,40,20.28,40,19,0,19-22.61c0-2-.07-4.34-.2-7l14.83,4.34q-2.32,35.22-41.57,35.22-50.87,0-50.86-50.76,0-24.63,13.52-40.37t34.61-15.74m-9.69,45.51h22q0-35.52-10.69-35.52-9.69,0-10.9,26.34l-.41,9.18m9.69-53.51c-16.43,0-30.12,6.24-40.68,18.53-10.25,11.94-15.45,27.27-15.45,45.58,0,19,5.06,33.76,15.06,43.73s24.73,15,43.8,15c15,0,26.81-3.6,35.19-10.7,8.61-7.3,13.45-18.06,14.36-32a8,8,0,0,0-5-7.94,8,8,0,0,0,4.78-7.32c0-20.7-4.27-36.71-12.7-47.59-8.91-11.5-22.17-17.33-39.4-17.33Zm-1.33,45.51,0-.83c.45-9.84,1.78-14.74,2.75-17.07,1,2.44,2.24,7.57,2.69,17.9Zm0,27.41H830.3a8,8,0,0,0-.35,2.8c.13,2.49.19,4.7.19,6.55,0,13.48-5.42,14.61-11,14.61-2.72,0-5.58-.68-8.08-5.61-1.54-3-3.32-8.56-4-18.35Z"/></svg>