<?xml version="1.0" encoding="utf-8"?>
<!-- Generator: Adobe Illustrator 25.0.0, SVG Export Plug-In . SVG Version: 6.00 Build 0)  -->
<svg version="1.1" id="Ebene_1" xmlns="http://www.w3.org/2000/svg" xmlns:xlink="http://www.w3.org/1999/xlink" x="0px" y="0px"
	 viewBox="0 0 860.77 282.78" style="enable-background:new 0 0 860.77 282.78;" xml:space="preserve">
<style type="text/css">
	.st0{fill:#FFFFFF;}
</style>
<g id="Mütze">
	<path d="M107.74,157.92"/>
	<path d="M44.37,149.73c-1.44-4.83-0.97-9.79-1.87-14.61c-0.83-4.44-1.93-8.82-3-13.21c-0.65-2.69-1.42-5.35-2.23-8
		c-0.14-0.47-0.65-1.03-1.1-1.17c-5.44-1.63-10.74-3.57-15.57-6.62c-8.02-5.07-14.6-11.44-17.87-20.59
		c-2.55-7.12-3.03-14.53-2.59-22.02c0.43-7.28,2.3-14.18,6.12-20.4c3.44-5.62,8.12-9.95,14.09-12.99c6.5-3.31,13.32-4.31,20.47-4.07
		c1.94,0.07,3.88,0.06,5.83,0.07c0.98,0.01,1.91,0.36,1.69,1.4c-0.15,0.71-0.94,1.64-1.61,1.81c-1.75,0.44-3.58,0.72-5.38,0.71
		c-8.89-0.02-15.78,3.97-21.64,10.34c-3.81,4.14-6.38,9.01-7.96,14.26c-2.05,6.8-2.46,13.85-1.36,20.96
		c1.07,6.89,3.37,13.24,7.68,18.75c4.11,5.25,9.25,9.14,15.66,11.24c0.21,0.07,0.44,0.04,0.95,0.08c0.4-2.74-0.28-5.21-1.17-7.56
		c-1.21-3.18-2.04-6.37-1.67-9.79c0.08-0.7,0.27-1.46,0.65-2.04c0.4-0.61,1.08-1.03,1.63-1.53c0.52,0.58,1.26,1.07,1.51,1.75
		c0.97,2.64,1.83,5.32,2.63,8.02c0.97,3.23,1.85,6.49,2.75,9.75c0.94,3.42,1.85,6.85,2.77,10.28c0.75,2.82,1.58,5.63,2.22,8.48
		c0.72,3.2,1.29,6.44,1.9,9.66c0.34,1.78,0.62,3.57,0.96,5.5c0.24-0.08,0.65-0.11,0.92-0.32c5.26-4.29,11.34-6.96,17.81-8.7
		c2.77-0.75,5.69-1.07,8.57-1.21c3.99-0.2,8.01-0.27,11.99,0c4.06,0.28,8.09,1.04,12.13,1.63c5.59,0.82,10.87,2.73,16.04,4.9
		c2.59,1.09,5.02,2.54,7.53,3.82c0.44,0.22,0.88,0.43,1.56,0.76c0.26-2.33,0.56-4.43,0.72-6.54c0.42-5.64,0.53-11.31,1.22-16.91
		c0.69-5.56,1.79-11.09,3.02-16.56c0.64-2.84,1.38-5.57,0.53-8.44c-0.25-0.84-0.6-1.74-1.16-2.39c-4.4-5.08-9.34-9.46-15.79-11.8
		c-3.21-1.17-6.52-0.77-9.82-0.56c-3.12,0.2-6.24,0.42-9.36,0.55c-0.62,0.02-1.25-0.36-2.04-0.6c1.3-2.33,3.33-3.11,5.45-3.36
		c3.45-0.41,6.93-0.67,10.41-0.69c5.15-0.03,8.62-2.62,11.53-6.56c1.26-1.71,2.98-3.11,4.63-4.5c0.61-0.51,1.62-0.57,2.54-0.86
		c0.5,3.36-0.95,5.69-2.72,7.91c-0.92,1.15-1.77,2.37-2.72,3.49c-0.91,1.08-0.64,2.05,0.26,2.83c2.74,2.38,5.63,4.58,8.28,7.04
		c2.44,2.26,5.09,4.5,6.82,7.26c1.82,2.91,0.91,6.36-0.17,9.57c-0.89,2.65-1.64,5.36-2.45,8.04c0.16,0.15,0.31,0.3,0.47,0.45
		c0.97-0.28,1.97-0.46,2.89-0.85c8.45-3.54,14.84-9.71,19.92-17.02c6.14-8.84,9.78-18.68,8.37-29.77c-0.45-3.53-2.19-6.47-4.37-9.2
		c-1.56-1.95-3.08-3.93-4.56-5.94c-0.4-0.55-0.57-1.28-0.87-1.97c3.4-0.73,6,0.55,8.26,2.46c4.38,3.71,7.01,8.49,8.39,14.08
		c1.27,5.15,1.19,10.32,0.47,15.45c-0.7,5.03-2.84,9.62-5.39,14c-3.73,6.38-8.58,11.78-14.53,16.14
		c-5.43,3.98-11.41,6.82-18.12,7.96c-1.11,0.19-1.78,0.52-2.03,1.97c-1.44,8.43-0.72,16.97-1.55,25.42"/>
	<path d="M50.45,31.43c-0.06-3.21,0.92-6.05,2.23-8.74c4.38-9.04,11.98-14.41,20.97-18.17c11.28-4.71,23.07-5.2,34.98-3.9
		c4.23,0.46,8.37,1.74,12.52,2.79c9.21,2.32,16.65,7.54,22.89,14.52c6.88,7.7,9.91,16.57,7.81,26.92c-0.45,2.2-0.88,4.33-3.4,5.67
		c-0.31-0.82-0.75-1.5-0.81-2.2c-0.14-1.82-0.19-3.65-0.15-5.48c0.12-4.52-1.53-8.52-3.69-12.33c-3.06-5.41-7.5-9.58-12.67-12.82
		c-4.72-2.96-9.92-4.99-15.34-6.47c-7.61-2.08-15.34-2.77-23.14-2.25c-11.03,0.74-21.37,3.82-30.2,10.73
		c-2.97,2.32-5.82,4.87-7.31,8.62C54.43,30.1,53.22,31.92,50.45,31.43z"/>
</g>
<g id="Cookable">
	<g>
		<path class="st0" d="M88.46,278.78c-21.52,0-37.98-6.25-48.93-18.57c-10.83-12.19-16.32-30.47-16.32-54.35
			c0-22.69,6.34-41.42,18.86-55.67c12.65-14.4,29.31-21.69,49.53-21.69c31.86,0,48.7,16.25,48.7,46.99c0,1.56-0.91,2.98-2.33,3.64
			l-17.15,7.87c-0.53,0.24-1.1,0.36-1.67,0.36c-0.79,0-1.57-0.23-2.24-0.69c-1.16-0.78-1.82-2.12-1.75-3.51
			c0.2-3.95,0.3-7.04,0.3-9.19c0-23.73-11.65-26.48-20.42-26.48c-18.05,0-21.83,33-21.83,60.68c0,34.24,8.36,51.6,24.86,51.6
			c6.75,0,12.24-2.63,16.76-8.05c4.71-5.63,6.99-12.55,6.99-21.15c0-2.81-0.43-7.13-1.27-12.84c-0.2-1.33,0.29-2.67,1.29-3.56
			c0.74-0.67,1.7-1.02,2.67-1.02c0.34,0,0.67,0.04,1.01,0.13l17.05,4.44c1.65,0.43,2.85,1.86,2.98,3.57
			c0.28,3.6,0.42,6.76,0.42,9.39c0,14.58-5.38,26.41-15.98,35.17C119.58,274.43,105.62,278.78,88.46,278.78z"/>
		<path d="M91.59,132.49c29.8,0,44.7,14.33,44.7,42.99l-17.15,7.87c0.2-4.04,0.3-7.17,0.3-9.38c0-20.32-8.14-30.48-24.42-30.48
			c-17.22,0-25.83,21.56-25.83,64.68c0,37.07,9.62,55.6,28.86,55.6c7.94,0,14.55-3.16,19.83-9.49c5.28-6.32,7.92-14.23,7.92-23.71
			c0-3.03-0.44-7.5-1.31-13.42l17.05,4.44c0.27,3.5,0.4,6.53,0.4,9.08c0,13.39-4.84,24.08-14.53,32.09
			c-9.69,8.01-22.67,12.01-38.95,12.01c-40.84,0-61.25-22.97-61.25-68.92c0-21.8,5.95-39.47,17.86-53.03
			C56.98,139.27,72.48,132.49,91.59,132.49 M91.59,124.49c-21.42,0-39.09,7.76-52.53,23.05c-13.17,15-19.85,34.61-19.85,58.31
			c0,63.58,37.66,76.92,69.25,76.92c18.11,0,32.93-4.66,44.05-13.84c11.57-9.56,17.43-22.43,17.43-38.26c0-2.73-0.14-5.99-0.43-9.69
			c-0.26-3.41-2.66-6.27-5.96-7.13l-17.05-4.44c-0.67-0.17-1.34-0.26-2.02-0.26c-1.95,0-3.86,0.71-5.34,2.05
			c-2,1.79-2.96,4.47-2.57,7.12c1.01,6.87,1.23,10.46,1.23,12.25c0,7.62-1.98,13.7-6.06,18.59c-3.77,4.51-8.12,6.61-13.69,6.61
			c-6.62,0-11.1-2.96-14.55-9.59c-4.19-8.07-6.32-20.86-6.32-38.02c0-21.17,2.32-56.68,17.83-56.68c8.53,0,16.42,2.72,16.42,22.48
			c0,2.07-0.1,5.1-0.29,8.99c-0.14,2.79,1.19,5.46,3.5,7.02c1.35,0.91,2.91,1.38,4.49,1.38c1.13,0,2.27-0.24,3.34-0.73l17.15-7.87
			c2.84-1.3,4.66-4.14,4.66-7.27c0-16.52-4.59-29.31-13.63-38.01C121.71,128.86,108.56,124.49,91.59,124.49L91.59,124.49z"/>
	</g>
	<g>
		<path class="st0" d="M201.18,278.68c-17.91,0-31.65-4.9-40.82-14.57c-9.12-9.61-13.74-23.98-13.74-42.71s4.62-33.11,13.74-42.71
			c9.17-9.67,22.91-14.57,40.82-14.57c17.88,0,31.59,4.9,40.75,14.57c9.1,9.61,13.71,23.98,13.71,42.71s-4.61,33.1-13.71,42.71
			C232.77,273.77,219.06,278.68,201.18,278.68z M201.08,181.09c-0.84,0-8.21,1.13-8.21,40.3c0,39.17,7.37,40.3,8.21,40.3
			c0.85,0,8.31-1.13,8.31-40.3C209.39,182.23,201.93,181.09,201.08,181.09z"/>
		<path d="M201.18,168.11c33.64,0,50.46,17.76,50.46,53.28c0,35.52-16.82,53.28-50.46,53.28c-33.7,0-50.56-17.76-50.56-53.28
			C150.62,185.87,167.48,168.11,201.18,168.11 M201.08,265.7c8.21,0,12.31-14.77,12.31-44.3c0-29.53-4.1-44.3-12.31-44.3
			c-8.14,0-12.21,14.77-12.21,44.3C188.87,250.93,192.94,265.7,201.08,265.7 M201.18,160.11c-19.05,0-33.76,5.32-43.72,15.81
			c-9.84,10.37-14.84,25.67-14.84,45.47c0,19.8,4.99,35.09,14.84,45.47c9.96,10.49,24.67,15.81,43.72,15.81
			c19.02,0,33.71-5.32,43.65-15.82c9.82-10.37,14.81-25.67,14.81-45.46c0-19.79-4.98-35.09-14.81-45.46
			C234.89,165.44,220.2,160.11,201.18,160.11L201.18,160.11z M201.11,256.59c-1.5-2.95-4.24-11.56-4.24-35.19
			c0-23.63,2.74-32.25,4.24-35.19c1.51,2.92,4.28,11.51,4.28,35.19C205.39,245.08,202.62,253.67,201.11,256.59L201.11,256.59z"/>
	</g>
	<g>
		<path class="st0" d="M312.99,278.68c-17.91,0-31.65-4.9-40.82-14.57c-9.12-9.61-13.74-23.98-13.74-42.71s4.62-33.11,13.74-42.71
			c9.17-9.67,22.91-14.57,40.82-14.57c17.88,0,31.59,4.9,40.75,14.57c9.1,9.61,13.71,23.98,13.71,42.71s-4.61,33.1-13.71,42.71
			C344.58,273.77,330.87,278.68,312.99,278.68z M312.89,181.09c-0.84,0-8.21,1.13-8.21,40.3c0,39.17,7.37,40.3,8.21,40.3
			c0.85,0,8.31-1.13,8.31-40.3C321.2,182.23,313.74,181.09,312.89,181.09z"/>
		<path d="M312.99,168.11c33.64,0,50.46,17.76,50.46,53.28c0,35.52-16.82,53.28-50.46,53.28c-33.7,0-50.56-17.76-50.56-53.28
			C262.43,185.87,279.29,168.11,312.99,168.11 M312.89,265.7c8.21,0,12.31-14.77,12.31-44.3c0-29.53-4.1-44.3-12.31-44.3
			c-8.14,0-12.21,14.77-12.21,44.3C300.68,250.93,304.75,265.7,312.89,265.7 M312.99,160.11c-19.05,0-33.76,5.32-43.72,15.81
			c-9.84,10.37-14.84,25.67-14.84,45.47c0,19.8,4.99,35.09,14.84,45.47c9.96,10.49,24.67,15.81,43.72,15.81
			c19.02,0,33.71-5.32,43.65-15.82c9.82-10.37,14.81-25.67,14.81-45.46c0-19.79-4.98-35.09-14.81-45.46
			C346.7,165.44,332.02,160.11,312.99,160.11L312.99,160.11z M312.92,256.59c-1.5-2.95-4.24-11.56-4.24-35.19
			c0-23.63,2.74-32.25,4.24-35.19c1.51,2.92,4.28,11.51,4.28,35.19C317.2,245.08,314.44,253.67,312.92,256.59L312.92,256.59z"/>
	</g>
	<g>
		<path class="st0" d="M439.94,276.46c-1.64,0-3.12-1-3.72-2.53l-15.16-38.46l-1.54,1.89v35.1c0,2.21-1.79,4-4,4h-36.83
			c-2.21,0-4-1.79-4-4V134.71c0-2.21,1.79-4,4-4c10.64,0,22.89-0.74,36.4-2.2c0.14-0.02,0.29-0.02,0.43-0.02
			c0.98,0,1.93,0.36,2.67,1.02c0.85,0.76,1.33,1.84,1.33,2.98v74.98l32.16-39.27c0.76-0.93,1.9-1.47,3.09-1.47h14.73
			c1.54,0,2.94,0.88,3.6,2.26c0.67,1.38,0.48,3.03-0.48,4.23l-19.54,24.52l29.41,73.22c0.5,1.23,0.35,2.63-0.4,3.73
			c-0.74,1.1-1.99,1.76-3.31,1.76H439.94z"/>
		<path d="M415.52,132.49v86.18l39.25-47.93h14.73l-20.99,26.34l30.27,75.38h-38.85l-17.66-44.81l-6.76,8.27v36.53h-36.83V134.71
			C389.52,134.71,401.79,133.97,415.52,132.49 M415.52,124.49c-0.29,0-0.57,0.02-0.86,0.05c-13.37,1.44-25.47,2.17-35.97,2.17
			c-4.42,0-8,3.58-8,8v137.75c0,4.42,3.58,8,8,8h36.83c4.42,0,8-3.58,8-8v-19.84l8.98,22.78c1.2,3.06,4.16,5.07,7.44,5.07h38.85
			c2.66,0,5.14-1.32,6.63-3.52c1.49-2.2,1.79-5,0.8-7.46l-28.54-71.06l18.09-22.69c1.91-2.4,2.28-5.69,0.95-8.46
			c-1.33-2.77-4.13-4.53-7.21-4.53h-14.73c-2.4,0-4.67,1.08-6.19,2.93l-25.07,30.61v-63.78c0-2.27-0.97-4.44-2.66-5.95
			C419.39,125.21,417.48,124.49,415.52,124.49L415.52,124.49z"/>
	</g>
	<g>
		<path class="st0" d="M514.21,278.58c-23.68,0-36.19-11.71-36.19-33.87c0-17.02,10.86-29.03,32.28-35.71
			c15.63-4.9,24.24-10.78,24.24-16.57c0-8.27-3.34-11.64-11.54-11.64c-12.3,0-13.96,5.63-13.96,11.14c0,2.68,0.87,6.43,2.58,11.15
			c0.49,1.35,0.22,2.87-0.72,3.96c-0.77,0.9-1.88,1.4-3.04,1.4c-0.25,0-0.51-0.02-0.76-0.07l-18.26-3.53
			c-1.67-0.32-2.95-1.66-3.2-3.34c-0.5-3.34-0.75-6.52-0.75-9.47c0-18.72,16.22-28.22,48.2-28.22c30.51,0,45.98,8.95,45.98,26.6
			v61.76c0,5.49,1.57,5.49,2.16,5.49c0.02,0,0.98-0.07,3.68-1.6c0.61-0.35,1.29-0.52,1.97-0.52c0.46,0,0.92,0.08,1.35,0.24
			c1.1,0.4,1.97,1.25,2.38,2.34l3.53,9.28c0.78,2.06-0.24,4.36-2.29,5.15c-9.43,3.66-18.78,5.52-27.79,5.52
			c-11.37,0-19.46-3.01-24.13-8.96C533.37,275.4,524.74,278.58,514.21,278.58z M534.23,220.1c-0.64,0.43-1.3,0.84-1.97,1.23
			c-6.32,3.69-9.4,9.89-9.4,18.94c0,11.12,2.01,16.18,3.87,16.18c1.86,0,7.5,0,7.5-15.98V220.1z"/>
		<path d="M533.08,167.81c27.99,0,41.98,7.54,41.98,22.6v61.76c0,6.32,2.05,9.49,6.16,9.49c1.28,0,3.16-0.71,5.65-2.12l3.53,9.28
			c-9.02,3.5-17.79,5.25-26.34,5.25c-12.65,0-20.45-3.94-23.41-11.81c-6.12,8.21-14.94,12.31-26.44,12.31
			c-21.46,0-32.19-9.96-32.19-29.87c0-15.14,9.82-25.77,29.47-31.89c18.03-5.65,27.04-12.45,27.04-20.38
			c0-10.43-5.18-15.64-15.54-15.64c-11.97,0-17.96,5.05-17.96,15.14c0,3.16,0.94,7.33,2.83,12.51l-18.26-3.53
			c-0.47-3.16-0.71-6.12-0.71-8.88C488.88,175.88,503.61,167.81,533.08,167.81 M526.72,260.45c7.67,0,11.5-6.66,11.5-19.98V211.3
			c-2.29,2.62-4.95,4.81-7.97,6.56c-7.6,4.44-11.4,11.91-11.4,22.4C518.85,253.72,521.48,260.45,526.72,260.45 M533.08,159.81
			c-16.25,0-28.35,2.3-36.99,7.04c-9.95,5.45-15.21,14.16-15.21,25.18c0,3.15,0.27,6.53,0.79,10.06c0.5,3.36,3.06,6.03,6.39,6.67
			l8.31,1.61c-18.14,9.57-22.36,23.48-22.36,34.34c0,24.42,14.27,37.87,40.19,37.87c10.1,0,18.62-2.67,25.48-7.97
			c4.81,4.24,12.41,7.46,24.38,7.46c9.5,0,19.33-1.95,29.23-5.79c4.1-1.59,6.15-6.19,4.58-10.3l-3.53-9.28
			c-0.83-2.18-2.57-3.89-4.77-4.68c-0.88-0.32-1.8-0.47-2.71-0.47c-1.32,0-2.62,0.32-3.8,0.96c0-0.11,0-0.22,0-0.33v-61.76
			c0-10.52-5.08-18.82-14.7-24C560.1,161.97,548.56,159.81,533.08,159.81L533.08,159.81z M515.7,202.89
			c-0.08-0.4-0.19-0.79-0.33-1.18c-2.04-5.61-2.34-8.53-2.34-9.78c0-3.35,0-7.14,9.96-7.14c5.92,0,7.54,1.64,7.54,7.64
			C530.53,194.35,527.23,198.43,515.7,202.89L515.7,202.89z M528.08,251.98c-0.53-1.62-1.23-5.03-1.23-11.71
			c0-5.93,1.49-9.62,3.38-12.03v12.23c0,6.83-1.13,9.82-1.81,10.99C528.3,251.68,528.19,251.84,528.08,251.98L528.08,251.98z"/>
	</g>
	<g>
		<path class="st0" d="M649.74,278.68c-12.98,0-24.36-5.35-33.92-15.93l-6.26,11.61c-0.7,1.29-2.05,2.1-3.52,2.1h-9.18
			c-2.21,0-4-1.79-4-4V134.71c0-2.21,1.79-4,4-4c5.86,0,18.15-0.71,36.53-2.11c0.1-0.01,0.2-0.01,0.3-0.01c1,0,1.98,0.38,2.72,1.07
			c0.82,0.76,1.28,1.82,1.28,2.93v38.88c5.8-4.89,12.13-7.36,18.91-7.36c13.34,0,23.55,4.77,30.34,14.17
			c6.5,9,9.79,22.42,9.79,39.88c0,19.64-3.89,34.72-11.56,44.81C677.23,273.39,665.31,278.68,649.74,278.68z M645.19,186.95
			c-5.14,0-8.21,11.71-8.21,31.32c0,36.52,7.1,37.58,7.91,37.58c5.28,0,6.39-9.62,6.39-17.7l0.6-24.87l-0.69-13.78
			C650.72,194.76,649.3,186.95,645.19,186.95z"/>
		<path d="M633.69,132.59v48.94c6.86-8.95,14.5-13.42,22.91-13.42c24.08,0,36.13,16.69,36.13,50.05c0,37.68-14.33,56.51-42.99,56.51
			c-13.52,0-25.06-6.36-34.61-19.07l-9.08,16.85h-9.18V134.71C602.84,134.71,615.12,134.01,633.69,132.59 M644.89,259.84
			c6.93,0,10.39-7.23,10.39-21.7l0.61-24.93l-0.71-14.03c-1.08-10.83-4.41-16.25-9.99-16.25c-8.14,0-12.21,11.77-12.21,35.32
			C632.98,245.98,636.95,259.84,644.89,259.84 M633.69,124.59c-0.2,0-0.4,0.01-0.61,0.02c-18.28,1.39-30.46,2.1-36.23,2.1
			c-4.42,0-8,3.58-8,8v137.75c0,4.42,3.58,8,8,8h9.18c2.94,0,5.65-1.61,7.04-4.2l3.69-6.84c9.5,8.81,20.54,13.27,32.97,13.27
			c16.89,0,29.88-5.82,38.61-17.28c8.33-10.95,12.38-26.4,12.38-47.23c0-18.58-3.45-32.39-10.55-42.22
			c-7.58-10.51-18.88-15.83-33.58-15.83c-5.24,0-10.22,1.27-14.91,3.78v-31.3c0-2.23-0.93-4.35-2.56-5.87
			C637.64,125.35,635.7,124.59,633.69,124.59L633.69,124.59z M645.26,251.35c-1.31-2.18-4.28-9.68-4.28-33.09
			c0-19.8,3.03-25.57,4.12-27.01c0.55,0.91,1.56,3.24,2.1,8.54l0.68,13.53l-0.6,24.63c0,0.06,0,0.13,0,0.19
			C647.29,246.67,645.95,250.13,645.26,251.35L645.26,251.35z"/>
	</g>
	<g>
		<path class="st0" d="M708.06,276.46c-2.21,0-4-1.79-4-4V134.71c0-2.21,1.79-4,4-4c10,0,22.27-0.67,36.46-2
			c0.12-0.01,0.25-0.02,0.37-0.02c0.99,0,1.95,0.37,2.69,1.04c0.83,0.76,1.31,1.83,1.31,2.96v139.76c0,2.21-1.79,4-4,4H708.06z"/>
		<path d="M744.9,132.69v139.76h-36.83V134.71C718.22,134.71,730.5,134.04,744.9,132.69 M744.9,124.69c-0.25,0-0.5,0.01-0.75,0.03
			c-14.07,1.32-26.21,1.98-36.09,1.98c-4.42,0-8,3.58-8,8v137.75c0,4.42,3.58,8,8,8h36.83c4.42,0,8-3.58,8-8V132.69
			c0-2.25-0.95-4.4-2.61-5.91C748.8,125.43,746.88,124.69,744.9,124.69L744.9,124.69z"/>
	</g>
	<g>
		<path class="st0" d="M811.2,278.78c-17.97,0-31.76-4.66-40.97-13.86c-9.22-9.2-13.89-22.96-13.89-40.9
			c0-17.32,4.88-31.78,14.49-42.97c9.77-11.37,22.43-17.14,37.65-17.14c15.93,0,28.12,5.31,36.24,15.78
			c7.87,10.16,11.86,25.35,11.86,45.14c0,2.21-1.79,4-4,4h-49.63c0.59,21.21,6.04,31.96,16.23,31.96c6.97,0,14.97-2.11,14.97-18.6
			c0-1.92-0.07-4.2-0.2-6.76c-0.07-1.29,0.5-2.54,1.52-3.34c0.71-0.56,1.59-0.86,2.48-0.86c0.38,0,0.75,0.05,1.12,0.16l14.83,4.34
			c1.8,0.53,2.99,2.23,2.87,4.1C855.08,265.31,839.33,278.78,811.2,278.78z M816.75,209.42c-0.5-26.71-6.01-27.52-6.66-27.52
			c-2.84,0-6.14,5.92-6.9,22.52l-0.22,5H816.75z"/>
		<path d="M808.47,167.91c29.4,0,44.1,18.97,44.1,56.91h-53.69c0,26.64,6.76,39.96,20.28,39.96c12.65,0,18.97-7.53,18.97-22.6
			c0-2.02-0.07-4.34-0.2-6.96l14.83,4.34c-1.55,23.48-15.41,35.22-41.58,35.22c-33.91,0-50.86-16.92-50.86-50.76
			c0-16.41,4.51-29.87,13.52-40.36C782.87,173.16,794.41,167.91,808.47,167.91 M798.78,213.42h22c0-23.68-3.57-35.52-10.7-35.52
			c-6.46,0-10.09,8.78-10.9,26.34L798.78,213.42 M808.47,159.91c-16.43,0-30.12,6.23-40.68,18.53
			c-10.25,11.94-15.45,27.27-15.45,45.58c0,19.04,5.07,33.76,15.06,43.73c9.99,9.97,24.73,15.03,43.8,15.03
			c14.97,0,26.81-3.6,35.19-10.7c8.61-7.3,13.45-18.06,14.37-31.99c0.23-3.47-1.8-6.65-4.96-7.93c2.81-1.24,4.78-4.05,4.78-7.33
			c0-20.7-4.27-36.71-12.7-47.59C838.96,165.74,825.7,159.91,808.47,159.91L808.47,159.91z M807.14,205.42l0.04-0.83
			c0.45-9.84,1.78-14.74,2.75-17.07c0.96,2.44,2.25,7.57,2.69,17.91H807.14L807.14,205.42z M807.13,232.83h23.17
			c-0.28,0.89-0.41,1.84-0.36,2.8c0.13,2.5,0.19,4.7,0.19,6.56c0,13.48-5.42,14.6-10.97,14.6c-2.72,0-5.58-0.68-8.08-5.61
			C809.55,248.14,807.77,242.62,807.13,232.83L807.13,232.83z"/>
	</g>
</g>
</svg>
